<svg width="70" height="70" viewBox="0 0 70 70" fill="none" xmlns="http://www.w3.org/2000/svg">
<g clip-path="url(#clip0_715_2441)">
<rect width="70" height="70" rx="15" fill="#F6F671"/>
<path d="M21.9218 15.9165H27.7551" stroke="#383489" stroke-width="2" stroke-linecap="round" stroke-linejoin="round"/>
<path d="M24.8385 13V18.8333" stroke="#383489" stroke-width="2" stroke-linecap="round" stroke-linejoin="round"/>
<path d="M33.7968 20L32.3385 25.8333" stroke="#383489" stroke-width="2" stroke-linecap="round" stroke-linejoin="round"/>
<path d="M50.7551 15.9165H56.5885" stroke="#383489" stroke-width="2" stroke-linecap="round" stroke-linejoin="round"/>
<path d="M53.6718 13V18.8333" stroke="#383489" stroke-width="2" stroke-linecap="round" stroke-linejoin="round"/>
<path d="M42.0052 28.583L39.0885 31.4997" stroke="#383489" stroke-width="2" stroke-linecap="round" stroke-linejoin="round"/>
<path d="M45.7551 38.2498L51.5885 36.7915" stroke="#383489" stroke-width="2" stroke-linecap="round" stroke-linejoin="round"/>
<path d="M50.7551 49.75H56.5885" stroke="#383489" stroke-width="2" stroke-linecap="round" stroke-linejoin="round"/>
<path d="M53.6718 46.833V52.6663" stroke="#383489" stroke-width="2" stroke-linecap="round" stroke-linejoin="round"/>
<path d="M45.0885 44.0108L26.0776 25L13.2735 52.9417C13.0204 53.4842 12.9404 54.0914 13.0443 54.681C13.1482 55.2705 13.431 55.8138 13.8543 56.2371C14.2776 56.6604 14.8209 56.9432 15.4104 57.0471C16 57.151 16.6072 57.071 17.1497 56.8179L45.0885 44.0108Z" stroke="#383489" stroke-width="2" stroke-linecap="round" stroke-linejoin="round"/>
</g>
<defs>
<clipPath id="clip0_715_2441">
<rect width="70" height="70" fill="white"/>
</clipPath>
</defs>
</svg>
