<svg width="45" height="45" viewBox="0 0 45 45" fill="none" xmlns="http://www.w3.org/2000/svg">
<g clip-path="url(#clip0_715_2533)">
<rect width="45" height="45" rx="5" fill="#F6F671"/>
<path d="M32 25.6C32 26.5194 32.3652 27.4011 33.0154 28.0513C33.6655 28.7014 34.5472 29.0666 35.4667 29.0666C36.3861 29.0666 37.2678 28.7014 37.918 28.0513C38.5681 27.4011 38.9333 26.5194 38.9333 25.6C38.9333 24.6806 38.5681 23.7988 37.918 23.1487C37.2678 22.4985 36.3861 22.1333 35.4667 22.1333C34.5472 22.1333 33.6655 22.4985 33.0154 23.1487C32.3652 23.7988 32 24.6806 32 25.6Z" stroke="#383489" stroke-width="1.5" stroke-linecap="round" stroke-linejoin="round"/>
<path d="M6 32.5331C6 33.4525 6.36524 34.3342 7.01536 34.9844C7.66549 35.6345 8.54725 35.9997 9.46667 35.9997C10.3861 35.9997 11.2678 35.6345 11.918 34.9844C12.5681 34.3342 12.9333 33.4525 12.9333 32.5331C12.9333 31.6137 12.5681 30.7319 11.918 30.0818C11.2678 29.4316 10.3861 29.0664 9.46667 29.0664C8.54725 29.0664 7.66549 29.4316 7.01536 30.0818C6.36524 30.7319 6 31.6137 6 32.5331Z" stroke="#383489" stroke-width="1.5" stroke-linecap="round" stroke-linejoin="round"/>
<path d="M21.6 32.5331C21.6 33.4525 21.9652 34.3342 22.6154 34.9844C23.2655 35.6345 24.1473 35.9997 25.0667 35.9997C25.9861 35.9997 26.8678 35.6345 27.518 34.9844C28.1681 34.3342 28.5333 33.4525 28.5333 32.5331C28.5333 31.6137 28.1681 30.7319 27.518 30.0818C26.8678 29.4316 25.9861 29.0664 25.0667 29.0664C24.1473 29.0664 23.2655 29.4316 22.6154 30.0818C21.9652 30.7319 21.6 31.6137 21.6 32.5331Z" stroke="#383489" stroke-width="1.5" stroke-linecap="round" stroke-linejoin="round"/>
<path d="M25.0666 36H9.46661" stroke="#383489" stroke-width="1.5" stroke-linecap="round" stroke-linejoin="round"/>
<path d="M9.46661 29.0664H25.0666" stroke="#383489" stroke-width="1.5" stroke-linecap="round" stroke-linejoin="round"/>
<path d="M16.4 23.8669V15.2002H19.8667C21.2458 15.2002 22.5685 15.7481 23.5436 16.7232C24.5188 17.6984 25.0667 19.0211 25.0667 20.4002V29.0669" stroke="#383489" stroke-width="1.5" stroke-linecap="round" stroke-linejoin="round"/>
<path d="M11.2 29.0662V25.5995C11.2 25.1398 11.3826 24.699 11.7077 24.3739C12.0327 24.0488 12.4736 23.8662 12.9333 23.8662H25.0666" stroke="#383489" stroke-width="1.5" stroke-linecap="round" stroke-linejoin="round"/>
<path d="M35.4666 22.1333V10L25.0666 22.1333" stroke="#383489" stroke-width="1.5" stroke-linecap="round" stroke-linejoin="round"/>
</g>
<defs>
<clipPath id="clip0_715_2533">
<rect width="45" height="45" fill="white"/>
</clipPath>
</defs>
</svg>
