<svg width="45" height="45" viewBox="0 0 45 45" fill="none" xmlns="http://www.w3.org/2000/svg">
<g clip-path="url(#clip0_715_2614)">
<path d="M34.5074 24.2983L22.0139 36.6719L9.52035 24.2983C8.69629 23.4964 8.04719 22.5325 7.61392 21.4675C7.18066 20.4024 6.97261 19.2591 7.00289 18.1097C7.03317 16.9603 7.30111 15.8296 7.78985 14.7888C8.27858 13.748 8.97753 12.8196 9.84266 12.0622C10.7078 11.3048 11.7204 10.7348 12.8167 10.3879C13.9129 10.0411 15.0692 9.92502 16.2125 10.047C17.3558 10.169 18.4616 10.5263 19.46 11.0966C20.4584 11.6669 21.328 12.4377 22.0139 13.3606C22.7027 12.4444 23.5733 11.6803 24.5711 11.1161C25.5688 10.5519 26.6723 10.1997 27.8124 10.0815C28.9526 9.96335 30.1048 10.0818 31.1971 10.4294C32.2893 10.7771 33.2981 11.3464 34.1602 12.1019C35.0223 12.8573 35.7192 13.7825 36.2072 14.8197C36.6953 15.8568 36.964 16.9835 36.9966 18.1293C37.0292 19.2751 36.825 20.4153 36.3967 21.4785C35.9683 22.5417 35.3252 23.505 34.5074 24.3083" stroke="#F6F671" stroke-width="1.5" stroke-linecap="round" stroke-linejoin="round"/>
<path d="M22.014 13.3511L16.5285 18.8366C16.2162 19.1489 16.0408 19.5726 16.0408 20.0143C16.0408 20.456 16.2162 20.8796 16.5285 21.192L17.433 22.0965C18.5824 23.2459 20.4481 23.2459 21.5975 22.0965L23.2633 20.4307C24.2574 19.4367 25.6056 18.8783 27.0114 18.8783C28.4172 18.8783 29.7654 19.4367 30.7594 20.4307L34.5075 24.1788" stroke="#F6F671" stroke-width="1.5" stroke-linecap="round" stroke-linejoin="round"/>
<path d="M22.8468 29.1753L26.1784 32.5069" stroke="#F6F671" stroke-width="1.5" stroke-linecap="round" stroke-linejoin="round"/>
<path d="M27.0113 25.0112L30.343 28.3428" stroke="#F6F671" stroke-width="1.5" stroke-linecap="round" stroke-linejoin="round"/>
</g>
<defs>
<clipPath id="clip0_715_2614">
<rect width="45" height="45" fill="white"/>
</clipPath>
</defs>
</svg>
