<svg width="45" height="45" viewBox="0 0 45 45" fill="none" xmlns="http://www.w3.org/2000/svg">
<g clip-path="url(#clip0_715_2465)">
<path d="M14.5264 8.94336H18.1397" stroke="#F6F671" stroke-width="1.5" stroke-linecap="round" stroke-linejoin="round"/>
<path d="M16.3331 7V10.8871" stroke="#F6F671" stroke-width="1.5" stroke-linecap="round" stroke-linejoin="round"/>
<path d="M21.8822 12.6641L20.9788 16.5512" stroke="#F6F671" stroke-width="1.5" stroke-linecap="round" stroke-linejoin="round"/>
<path d="M32.3867 8.94336H36" stroke="#F6F671" stroke-width="1.5" stroke-linecap="round" stroke-linejoin="round"/>
<path d="M34.1933 7V10.8871" stroke="#F6F671" stroke-width="1.5" stroke-linecap="round" stroke-linejoin="round"/>
<path d="M26.9667 18.3838L25.16 20.3273" stroke="#F6F671" stroke-width="1.5" stroke-linecap="round" stroke-linejoin="round"/>
<path d="M29.2895 24.8253L32.9028 23.8535" stroke="#F6F671" stroke-width="1.5" stroke-linecap="round" stroke-linejoin="round"/>
<path d="M32.3867 31.4888H36" stroke="#F6F671" stroke-width="1.5" stroke-linecap="round" stroke-linejoin="round"/>
<path d="M34.1933 29.5449V33.432" stroke="#F6F671" stroke-width="1.5" stroke-linecap="round" stroke-linejoin="round"/>
<path d="M27.8766 29.6646L16.1007 16.9966L8.16939 35.6157C8.01263 35.9772 7.96306 36.3819 8.02742 36.7747C8.09179 37.1676 8.26696 37.5296 8.52916 37.8117C8.79137 38.0937 9.1279 38.2822 9.49308 38.3514C9.85827 38.4207 10.2344 38.3673 10.5705 38.1987L27.8766 29.6646Z" stroke="#F6F671" stroke-width="1.5" stroke-linecap="round" stroke-linejoin="round"/>
</g>
<defs>
<clipPath id="clip0_715_2465">
<rect width="45" height="45" fill="white"/>
</clipPath>
</defs>
</svg>
