<svg width="70" height="70" viewBox="0 0 70 70" fill="none" xmlns="http://www.w3.org/2000/svg">
<g clip-path="url(#clip0_715_2602)">
<rect width="70" height="70" rx="15" fill="#F6F671"/>
<path d="M52.5686 36.5676L34.597 54.3667L16.6255 36.5676C15.4401 35.4141 14.5064 34.0277 13.8831 32.4956C13.2599 30.9635 12.9606 29.319 13.0042 27.6656C13.0477 26.0121 13.4331 24.3856 14.1362 22.8885C14.8392 21.3913 15.8446 20.056 17.0891 18.9665C18.3336 17.877 19.7901 17.057 21.3671 16.558C22.9441 16.0591 24.6072 15.8921 26.2519 16.0676C27.8966 16.243 29.4871 16.7571 30.9233 17.5775C32.3596 18.3978 33.6104 19.5066 34.597 20.8341C35.588 19.5163 36.8402 18.4171 38.2755 17.6055C39.7107 16.7939 41.298 16.2872 42.9381 16.1172C44.5781 15.9473 46.2356 16.1177 47.8068 16.6177C49.378 17.1178 50.829 17.9368 52.0691 19.0235C53.3092 20.1101 54.3117 21.4411 55.0138 22.933C55.7158 24.4249 56.1024 26.0456 56.1493 27.6938C56.1962 29.342 55.9024 30.9821 55.2862 32.5115C54.6701 34.0409 53.7449 35.4266 52.5686 36.582" stroke="#383489" stroke-width="2" stroke-linecap="round" stroke-linejoin="round"/>
<path d="M34.5972 20.8198L26.7064 28.7105C26.2572 29.1599 26.0049 29.7693 26.0049 30.4047C26.0049 31.0401 26.2572 31.6494 26.7064 32.0988L28.0076 33.3999C29.661 35.0533 32.3447 35.0533 33.9981 33.3999L36.3943 31.0037C37.8242 29.5738 39.7636 28.7705 41.7858 28.7705C43.808 28.7705 45.7474 29.5738 47.1773 31.0037L52.5687 36.3952" stroke="#383489" stroke-width="2" stroke-linecap="round" stroke-linejoin="round"/>
<path d="M35.7952 43.5835L40.5876 48.3759" stroke="#383489" stroke-width="2" stroke-linecap="round" stroke-linejoin="round"/>
<path d="M41.7858 37.5933L46.5782 42.3857" stroke="#383489" stroke-width="2" stroke-linecap="round" stroke-linejoin="round"/>
</g>
<defs>
<clipPath id="clip0_715_2602">
<rect width="70" height="70" fill="white"/>
</clipPath>
</defs>
</svg>
