<svg width="70" height="70" viewBox="0 0 70 70" fill="none" xmlns="http://www.w3.org/2000/svg">
<g clip-path="url(#clip0_715_1939)">
<rect width="70" height="70" rx="15" fill="#F5F937"/>
<path d="M48 37.9997C48 39.2374 48.4917 40.4243 49.3668 41.2995C50.242 42.1747 51.429 42.6663 52.6667 42.6663C53.9043 42.6663 55.0913 42.1747 55.9665 41.2995C56.8417 40.4243 57.3333 39.2374 57.3333 37.9997C57.3333 36.762 56.8417 35.575 55.9665 34.6998C55.0913 33.8247 53.9043 33.333 52.6667 33.333C51.429 33.333 50.242 33.8247 49.3668 34.6998C48.4917 35.575 48 36.762 48 37.9997Z" stroke="#26569F" stroke-width="2" stroke-linecap="round" stroke-linejoin="round"/>
<path d="M13 47.3332C13 48.5708 13.4917 49.7578 14.3668 50.633C15.242 51.5082 16.429 51.9998 17.6667 51.9998C18.9043 51.9998 20.0913 51.5082 20.9665 50.633C21.8417 49.7578 22.3333 48.5708 22.3333 47.3332C22.3333 46.0955 21.8417 44.9085 20.9665 44.0333C20.0913 43.1582 18.9043 42.6665 17.6667 42.6665C16.429 42.6665 15.242 43.1582 14.3668 44.0333C13.4917 44.9085 13 46.0955 13 47.3332Z" stroke="#26569F" stroke-width="2" stroke-linecap="round" stroke-linejoin="round"/>
<path d="M34 47.3332C34 48.5708 34.4917 49.7578 35.3668 50.633C36.242 51.5082 37.429 51.9998 38.6667 51.9998C39.9043 51.9998 41.0913 51.5082 41.9665 50.633C42.8417 49.7578 43.3333 48.5708 43.3333 47.3332C43.3333 46.0955 42.8417 44.9085 41.9665 44.0333C41.0913 43.1582 39.9043 42.6665 38.6667 42.6665C37.429 42.6665 36.242 43.1582 35.3668 44.0333C34.4917 44.9085 34 46.0955 34 47.3332Z" stroke="#26569F" stroke-width="2" stroke-linecap="round" stroke-linejoin="round"/>
<path d="M38.6666 52H17.6666" stroke="#26569F" stroke-width="2" stroke-linecap="round" stroke-linejoin="round"/>
<path d="M17.6666 42.6665H38.6666" stroke="#26569F" stroke-width="2" stroke-linecap="round" stroke-linejoin="round"/>
<path d="M27 35.6667V24H31.6667C33.5232 24 35.3037 24.7375 36.6164 26.0503C37.9292 27.363 38.6667 29.1435 38.6667 31V42.6667" stroke="#26569F" stroke-width="2" stroke-linecap="round" stroke-linejoin="round"/>
<path d="M20 42.6665V37.9998C20 37.381 20.2458 36.7875 20.6834 36.3499C21.121 35.9123 21.7145 35.6665 22.3333 35.6665H38.6667" stroke="#26569F" stroke-width="2" stroke-linecap="round" stroke-linejoin="round"/>
<path d="M52.6666 33.3333V17L38.6666 33.3333" stroke="#26569F" stroke-width="2" stroke-linecap="round" stroke-linejoin="round"/>
</g>
<defs>
<clipPath id="clip0_715_1939">
<rect width="70" height="70" fill="white"/>
</clipPath>
</defs>
</svg>
