<svg width="70" height="70" viewBox="0 0 70 70" fill="none" xmlns="http://www.w3.org/2000/svg">
<g clip-path="url(#clip0_715_2643)">
<path d="M24.1667 47L20.4286 48.81C19.9995 49.0175 19.6387 49.3364 19.3863 49.7312C19.134 50.1259 19.0003 50.5808 19 51.045V57H50V51.045C49.9997 50.5808 49.866 50.1259 49.6137 49.7312C49.3613 49.3364 49.0005 49.0175 48.5714 48.81L44.8333 47H24.1667Z" stroke="#CEEDEE" stroke-width="2" stroke-linecap="round" stroke-linejoin="round"/>
<path d="M26.7406 12.0007L29.3491 20.0775L20.2428 25.8604C19.7587 26.1675 19.385 26.6292 19.1784 27.1756C18.9719 27.7219 18.9438 28.3229 19.0985 28.8872C19.2532 29.4515 19.5822 29.9482 20.0355 30.3019C20.4887 30.6555 21.0415 30.8467 21.6097 30.8465H29.3491L23.9417 47H44.7078L45 33.5387C45 25.462 42.1567 17.431 34.566 14.693C29.5056 12.8676 26.8971 11.9711 26.7406 12.0007Z" stroke="#CEEDEE" stroke-width="2" stroke-linecap="round" stroke-linejoin="round"/>
</g>
<defs>
<clipPath id="clip0_715_2643">
<rect width="70" height="70" fill="white"/>
</clipPath>
</defs>
</svg>
