<svg width="70" height="70" viewBox="0 0 70 70" fill="none" xmlns="http://www.w3.org/2000/svg">
<g clip-path="url(#clip0_715_2433)">
<path d="M13 17.8889C13 16.5923 13.5151 15.3488 14.4319 14.4319C15.3488 13.5151 16.5923 13 17.8889 13H52.1111C53.4077 13 54.6512 13.5151 55.5681 14.4319C56.4849 15.3488 57 16.5923 57 17.8889V52.1111C57 53.4077 56.4849 54.6512 55.5681 55.5681C54.6512 56.4849 53.4077 57 52.1111 57H17.8889C16.5923 57 15.3488 56.4849 14.4319 55.5681C13.5151 54.6512 13 53.4077 13 52.1111V17.8889Z" stroke="#F6F671" stroke-width="2" stroke-linecap="round" stroke-linejoin="round"/>
<path d="M24.4583 25.9167C25.2637 25.9167 25.9167 25.2637 25.9167 24.4583C25.9167 23.6529 25.2637 23 24.4583 23C23.6529 23 23 23.6529 23 24.4583C23 25.2637 23.6529 25.9167 24.4583 25.9167Z" fill="#F6F671" stroke="#F6F671" stroke-width="2.75" stroke-linecap="round" stroke-linejoin="round"/>
<path d="M44.875 25.9167C45.6804 25.9167 46.3333 25.2637 46.3333 24.4583C46.3333 23.6529 45.6804 23 44.875 23C44.0695 23 43.4166 23.6529 43.4166 24.4583C43.4166 25.2637 44.0695 25.9167 44.875 25.9167Z" fill="#F6F671" stroke="#F6F671" stroke-width="2.75" stroke-linecap="round" stroke-linejoin="round"/>
<path d="M44.875 46.3337C45.6804 46.3337 46.3333 45.6807 46.3333 44.8753C46.3333 44.0699 45.6804 43.417 44.875 43.417C44.0695 43.417 43.4166 44.0699 43.4166 44.8753C43.4166 45.6807 44.0695 46.3337 44.875 46.3337Z" fill="#F6F671" stroke="#F6F671" stroke-width="2.75" stroke-linecap="round" stroke-linejoin="round"/>
<path d="M24.4583 46.3337C25.2637 46.3337 25.9167 45.6807 25.9167 44.8753C25.9167 44.0699 25.2637 43.417 24.4583 43.417C23.6529 43.417 23 44.0699 23 44.8753C23 45.6807 23.6529 46.3337 24.4583 46.3337Z" fill="#F6F671" stroke="#F6F671" stroke-width="2.75" stroke-linecap="round" stroke-linejoin="round"/>
</g>
<defs>
<clipPath id="clip0_715_2433">
<rect width="70" height="70" fill="white"/>
</clipPath>
</defs>
</svg>
