<svg width="70" height="70" viewBox="0 0 70 70" fill="none" xmlns="http://www.w3.org/2000/svg">
<g clip-path="url(#clip0_715_2585)">
<rect width="70" height="70" rx="15" fill="#F6F671"/>
<path d="M13 30.1111C13 32.3582 13.4426 34.5832 14.3025 36.6593C15.1624 38.7353 16.4228 40.6216 18.0117 42.2105C19.6006 43.7994 21.487 45.0598 23.563 45.9197C25.639 46.7796 27.864 47.2222 30.1111 47.2222C32.3582 47.2222 34.5832 46.7796 36.6593 45.9197C38.7353 45.0598 40.6216 43.7994 42.2105 42.2105C43.7994 40.6216 45.0598 38.7353 45.9197 36.6593C46.7796 34.5832 47.2222 32.3582 47.2222 30.1111C47.2222 27.864 46.7796 25.639 45.9197 23.563C45.0598 21.487 43.7994 19.6006 42.2105 18.0117C40.6216 16.4228 38.7353 15.1624 36.6593 14.3025C34.5832 13.4426 32.3582 13 30.1111 13C27.864 13 25.639 13.4426 23.563 14.3025C21.487 15.1624 19.6006 16.4228 18.0117 18.0117C16.4228 19.6006 15.1624 21.487 14.3025 23.563C13.4426 25.639 13 27.864 13 30.1111Z" stroke="#383489" stroke-width="2" stroke-linecap="round" stroke-linejoin="round"/>
<path d="M57 57.0002L42.3333 42.3335" stroke="#383489" stroke-width="2" stroke-linecap="round" stroke-linejoin="round"/>
</g>
<defs>
<clipPath id="clip0_715_2585">
<rect width="70" height="70" fill="white"/>
</clipPath>
</defs>
</svg>
