<svg width="70" height="70" viewBox="0 0 70 70" fill="none" xmlns="http://www.w3.org/2000/svg">
<g clip-path="url(#clip0_715_2564)">
<rect width="70" height="70" rx="15" fill="#F6F671"/>
<path d="M13.4861 22.0069L31.3634 14.2203C31.6584 14.0939 31.9757 14.0278 32.2967 14.0259C32.6176 14.0241 32.9357 14.0865 33.2321 14.2095C33.5286 14.3325 33.7974 14.5136 34.0227 14.7422C34.2481 14.9707 34.4254 15.2421 34.5442 15.5402L46.8765 45.3491C47.1328 45.9536 47.1415 46.6345 46.9007 47.2453C46.66 47.8562 46.189 48.348 45.5891 48.615L27.7143 56.4016C27.4192 56.5284 27.1016 56.5948 26.7804 56.5969C26.4592 56.599 26.1408 56.5366 25.8441 56.4136C25.5473 56.2906 25.2783 56.1093 25.0528 55.8806C24.8272 55.6518 24.6498 55.3802 24.5311 55.0817L12.1988 25.2703C11.9424 24.6658 11.9337 23.9849 12.1745 23.3741C12.4152 22.7632 12.8863 22.2739 13.4861 22.0069Z" stroke="#383489" stroke-width="2" stroke-linecap="round" stroke-linejoin="round"/>
<path d="M42.0277 14H44.5323C45.1965 14 45.8335 14.2639 46.3032 14.7336C46.7729 15.2032 47.0368 15.8403 47.0368 16.5045V25.2704" stroke="#383489" stroke-width="2" stroke-linecap="round" stroke-linejoin="round"/>
<path d="M54.5503 19.0093C55.2115 19.2898 55.8527 19.5528 56.4738 19.7982C57.0852 20.0576 57.5685 20.5493 57.8174 21.165C58.0664 21.7808 58.0605 22.4702 57.8012 23.0816L52.0458 36.541" stroke="#383489" stroke-width="2" stroke-linecap="round" stroke-linejoin="round"/>
</g>
<defs>
<clipPath id="clip0_715_2564">
<rect width="70" height="70" fill="white"/>
</clipPath>
</defs>
</svg>
