<svg width="45" height="45" viewBox="0 0 45 45" fill="none" xmlns="http://www.w3.org/2000/svg">
<g clip-path="url(#clip0_715_2593)">
<path d="M10 20.0645C10 21.3862 10.2603 22.695 10.7661 23.916C11.2719 25.1371 12.0133 26.2466 12.9478 27.1812C13.8824 28.1158 14.9919 28.8571 16.213 29.3629C17.4341 29.8687 18.7428 30.129 20.0645 30.129C21.3862 30.129 22.695 29.8687 23.916 29.3629C25.1371 28.8571 26.2466 28.1158 27.1812 27.1812C28.1158 26.2466 28.8571 25.1371 29.3629 23.916C29.8687 22.695 30.129 21.3862 30.129 20.0645C30.129 18.7428 29.8687 17.4341 29.3629 16.213C28.8571 14.9919 28.1158 13.8824 27.1812 12.9478C26.2466 12.0133 25.1371 11.2719 23.916 10.7661C22.695 10.2603 21.3862 10 20.0645 10C18.7428 10 17.4341 10.2603 16.213 10.7661C14.9919 11.2719 13.8824 12.0133 12.9478 12.9478C12.0133 13.8824 11.2719 14.9919 10.7661 16.213C10.2603 17.4341 10 18.7428 10 20.0645Z" stroke="#F6F671" stroke-width="1.5" stroke-linecap="round" stroke-linejoin="round"/>
<path d="M36 36.0004L27.6129 27.6133" stroke="#F6F671" stroke-width="1.5" stroke-linecap="round" stroke-linejoin="round"/>
</g>
<defs>
<clipPath id="clip0_715_2593">
<rect width="45" height="45" fill="white"/>
</clipPath>
</defs>
</svg>
