<svg width="70" height="70" viewBox="0 0 70 70" fill="none" xmlns="http://www.w3.org/2000/svg">
<g clip-path="url(#clip0_715_2514)">
<path d="M43.9444 37.5557C41.5722 37.5557 39.2972 38.498 37.6198 40.1754C35.9424 41.8528 35 44.1279 35 46.5001V49.0557C35 51.4279 35.9424 53.7029 37.6198 55.3803C39.2972 57.0577 41.5722 58.0001 43.9444 58.0001C46.3167 58.0001 48.5917 57.0577 50.2691 55.3803C51.9465 53.7029 52.8889 51.4279 52.8889 49.0557V44.4557" stroke="#F6F671" stroke-width="2" stroke-linecap="round" stroke-linejoin="round"/>
<path d="M26.0556 37.5557C28.4279 37.5557 30.7029 38.498 32.3803 40.1754C34.0577 41.8528 35.0001 44.1279 35.0001 46.5001V49.0557C35.0001 51.4279 34.0577 53.7029 32.3803 55.3803C30.7029 57.0577 28.4279 58.0001 26.0556 58.0001C23.6834 58.0001 21.4084 57.0577 19.731 55.3803C18.0536 53.7029 17.1112 51.4279 17.1112 49.0557V44.4557" stroke="#F6F671" stroke-width="2" stroke-linecap="round" stroke-linejoin="round"/>
<path d="M49.0555 45.2224C51.4278 45.2224 53.7028 44.28 55.3802 42.6026C57.0576 40.9252 58 38.6501 58 36.2779C58 33.9057 57.0576 31.6307 55.3802 29.9533C53.7028 28.2759 51.4278 27.3335 49.0555 27.3335H47.7778" stroke="#F6F671" stroke-width="2" stroke-linecap="round" stroke-linejoin="round"/>
<path d="M52.8889 28.1V20.9444C52.8889 18.5722 51.9465 16.2972 50.2691 14.6198C48.5917 12.9424 46.3167 12 43.9444 12C41.5722 12 39.2972 12.9424 37.6198 14.6198C35.9424 16.2972 35 18.5722 35 20.9444" stroke="#F6F671" stroke-width="2" stroke-linecap="round" stroke-linejoin="round"/>
<path d="M20.9444 45.2224C18.5722 45.2224 16.2972 44.28 14.6198 42.6026C12.9424 40.9252 12 38.6501 12 36.2779C12 33.9057 12.9424 31.6307 14.6198 29.9533C16.2972 28.2759 18.5722 27.3335 20.9444 27.3335H22.2222" stroke="#F6F671" stroke-width="2" stroke-linecap="round" stroke-linejoin="round"/>
<path d="M17.1112 28.1V20.9444C17.1112 18.5722 18.0536 16.2972 19.731 14.6198C21.4084 12.9424 23.6834 12 26.0556 12C28.4279 12 30.7029 12.9424 32.3803 14.6198C34.0577 16.2972 35.0001 18.5722 35.0001 20.9444V46.5" stroke="#F6F671" stroke-width="2" stroke-linecap="round" stroke-linejoin="round"/>
</g>
<defs>
<clipPath id="clip0_715_2514">
<rect width="70" height="70" fill="white"/>
</clipPath>
</defs>
</svg>
