<svg width="45" height="45" viewBox="0 0 45 45" fill="none" xmlns="http://www.w3.org/2000/svg">
<g clip-path="url(#clip0_715_2639)">
<path d="M15.5357 30.2144L13.1327 31.3779C12.8569 31.5113 12.6249 31.7164 12.4627 31.9701C12.3005 32.2239 12.2145 32.5163 12.2143 32.8147V36.6429H32.1429V32.8147C32.1427 32.5163 32.0567 32.2239 31.8945 31.9701C31.7323 31.7164 31.5003 31.5113 31.2245 31.3779L28.8214 30.2144H15.5357Z" stroke="#CEEDEE" stroke-width="1.5" stroke-linecap="round" stroke-linejoin="round"/>
<path d="M17.1904 7.71481L18.8673 12.907L13.0133 16.6246C12.702 16.822 12.4618 17.1189 12.329 17.4701C12.1962 17.8213 12.1782 18.2076 12.2776 18.5704C12.3771 18.9332 12.5886 19.2525 12.88 19.4798C13.1713 19.7072 13.5267 19.8301 13.8919 19.83H18.8673L15.3911 30.2144H28.7408L28.9286 21.5607C28.9286 16.3685 27.1008 11.2057 22.221 9.44555C18.9679 8.27211 17.291 7.69577 17.1904 7.71481Z" stroke="#CEEDEE" stroke-width="1.5" stroke-linecap="round" stroke-linejoin="round"/>
</g>
<defs>
<clipPath id="clip0_715_2639">
<rect width="45" height="45" fill="white"/>
</clipPath>
</defs>
</svg>
