<svg width="45" height="45" viewBox="0 0 45 45" fill="none" xmlns="http://www.w3.org/2000/svg">
<g clip-path="url(#clip0_715_1877)">
<path d="M28.2222 24.7778C26.572 24.7778 24.9893 25.4334 23.8224 26.6003C22.6556 27.7672 22 29.3498 22 31V32.7778C22 34.428 22.6556 36.0107 23.8224 37.1776C24.9893 38.3445 26.572 39 28.2222 39C29.8724 39 31.4551 38.3445 32.622 37.1776C33.7889 36.0107 34.4444 34.428 34.4444 32.7778V29.5778" stroke="#F5F937" stroke-width="1.5" stroke-linecap="round" stroke-linejoin="round"/>
<path d="M15.7778 24.7778C17.428 24.7778 19.0107 25.4334 20.1776 26.6003C21.3445 27.7672 22 29.3498 22 31V32.7778C22 34.428 21.3445 36.0107 20.1776 37.1776C19.0107 38.3445 17.428 39 15.7778 39C14.1276 39 12.5449 38.3445 11.378 37.1776C10.2112 36.0107 9.5556 34.428 9.5556 32.7778V29.5778" stroke="#F5F937" stroke-width="1.5" stroke-linecap="round" stroke-linejoin="round"/>
<path d="M31.7777 30.1114C33.4279 30.1114 35.0106 29.4559 36.1774 28.289C37.3443 27.1221 37.9999 25.5394 37.9999 23.8892C37.9999 22.239 37.3443 20.6563 36.1774 19.4894C35.0106 18.3225 33.4279 17.667 31.7777 17.667H30.8888" stroke="#F5F937" stroke-width="1.5" stroke-linecap="round" stroke-linejoin="round"/>
<path d="M34.4444 18.2V13.2222C34.4444 11.572 33.7889 9.98933 32.622 8.82244C31.4551 7.65555 29.8724 7 28.2222 7C26.572 7 24.9893 7.65555 23.8224 8.82244C22.6556 9.98933 22 11.572 22 13.2222" stroke="#F5F937" stroke-width="1.5" stroke-linecap="round" stroke-linejoin="round"/>
<path d="M12.2222 30.1114C10.572 30.1114 8.98933 29.4559 7.82244 28.289C6.65555 27.1221 6 25.5394 6 23.8892C6 22.239 6.65555 20.6563 7.82244 19.4894C8.98933 18.3225 10.572 17.667 12.2222 17.667H13.1111" stroke="#F5F937" stroke-width="1.5" stroke-linecap="round" stroke-linejoin="round"/>
<path d="M9.5556 18.2V13.2222C9.5556 11.572 10.2112 9.98933 11.378 8.82244C12.5449 7.65555 14.1276 7 15.7778 7C17.428 7 19.0107 7.65555 20.1776 8.82244C21.3445 9.98933 22 11.572 22 13.2222V30.9999" stroke="#F5F937" stroke-width="1.5" stroke-linecap="round" stroke-linejoin="round"/>
</g>
<defs>
<clipPath id="clip0_715_1877">
<rect width="45" height="45" fill="white"/>
</clipPath>
</defs>
</svg>
