<svg width="45" height="45" viewBox="0 0 45 45" fill="none" xmlns="http://www.w3.org/2000/svg">
<g clip-path="url(#clip0_715_2569)">
<rect width="45" height="45" rx="5" fill="#F6F671"/>
<path d="M8.93688 15.0476L20.2074 10.1387C20.3933 10.059 20.5934 10.0173 20.7957 10.0161C20.9981 10.015 21.1986 10.0543 21.3855 10.1319C21.5724 10.2094 21.7418 10.3236 21.8839 10.4677C22.0259 10.6118 22.1377 10.7828 22.2126 10.9708L29.9873 29.7634C30.1489 30.1444 30.1544 30.5737 30.0026 30.9588C29.8508 31.3439 29.5539 31.654 29.1758 31.8223L17.9068 36.7312C17.7208 36.8112 17.5206 36.8531 17.3181 36.8544C17.1156 36.8557 16.9149 36.8164 16.7278 36.7388C16.5407 36.6612 16.3711 36.547 16.2289 36.4027C16.0867 36.2585 15.9749 36.0873 15.9 35.8991L8.1253 17.105C7.9637 16.7239 7.95821 16.2946 8.11 15.9095C8.26179 15.5244 8.55873 15.2159 8.93688 15.0476Z" stroke="#383489" stroke-width="1.5" stroke-linecap="round" stroke-linejoin="round"/>
<path d="M26.9305 10H28.5095C28.9282 10 29.3298 10.1664 29.6259 10.4625C29.922 10.7586 30.0884 11.1602 30.0884 11.5789V17.1052" stroke="#383489" stroke-width="1.5" stroke-linecap="round" stroke-linejoin="round"/>
<path d="M34.8252 13.1582C35.2421 13.335 35.6463 13.5008 36.0378 13.6556C36.4233 13.8191 36.728 14.1291 36.8849 14.5173C37.0419 14.9055 37.0382 15.3401 36.8747 15.7256L33.2463 24.2108" stroke="#383489" stroke-width="1.5" stroke-linecap="round" stroke-linejoin="round"/>
</g>
<defs>
<clipPath id="clip0_715_2569">
<rect width="45" height="45" fill="white"/>
</clipPath>
</defs>
</svg>
