<svg width="148" height="145" viewBox="0 0 148 145" fill="none" xmlns="http://www.w3.org/2000/svg">
<path d="M70.4298 4.49396L4.32425 93.7338C2.43691 96.198 2.58209 99.3066 4.66301 101.695H4.61461L36.6995 138.619C38.1997 140.325 40.4258 141.462 42.9423 141.841C44.3941 142.069 45.9427 142.069 47.4913 141.728L137.697 122.849C142.827 121.787 145.924 117.693 144.617 113.637C144.472 113.182 144.278 112.765 143.988 112.348L77.3985 4.72142C76.479 3.20502 74.0593 2.56055 72.1236 3.31875C71.3977 3.58412 70.817 4.00113 70.4298 4.49396Z" stroke="#CEEDEE" stroke-width="5" stroke-linecap="round" stroke-linejoin="round"/>
<path d="M42.8531 142L42.9026 141.849L73.958 6.88794" fill="#020202"/>
<path d="M42.8531 142L42.9026 141.849L73.958 6.88794" stroke="#CEEDEE" stroke-width="5" stroke-linecap="round" stroke-linejoin="round"/>
<path d="M30.1654 106.129C29.3307 108.547 26.6939 109.831 24.2758 108.996C21.8577 108.161 20.574 105.525 21.4086 103.106C22.2433 100.688 24.8801 99.4046 27.2982 100.239C29.7163 101.074 31 103.711 30.1654 106.129Z" fill="#F5F937"/>
<path d="M45.5237 75.6938C44.6891 78.1119 42.0522 79.3956 39.6341 78.561C37.216 77.7263 35.9323 75.0895 36.767 72.6713C37.6016 70.2532 40.2385 68.9696 42.6566 69.8042C45.0747 70.6388 46.3583 73.2757 45.5237 75.6938Z" fill="#F5F937"/>
<path d="M37.8446 90.9113C37.0099 93.3295 34.3731 94.6131 31.955 93.7785C29.5369 92.9439 28.2532 90.307 29.0878 87.8889C29.9225 85.4708 32.5593 84.1871 34.9774 85.0217C37.3955 85.8564 38.6792 88.4932 37.8446 90.9113Z" fill="#F5F937"/>
<path d="M92.4193 113.284C93.2977 115.687 92.062 118.346 89.6594 119.225C87.2569 120.103 84.5972 118.867 83.7188 116.465C82.8405 114.062 84.0761 111.402 86.4787 110.524C88.8812 109.646 91.541 110.881 92.4193 113.284Z" fill="#F5F937"/>
<path d="M85.1295 79.982C86.0078 82.3846 84.7722 85.0443 82.3696 85.9226C79.967 86.801 77.3073 85.5653 76.4289 83.1628C75.5506 80.7602 76.7862 78.1005 79.1888 77.2221C81.5914 76.3438 84.2511 77.5794 85.1295 79.982Z" fill="#F5F937"/>
<path d="M88.7744 96.6329C89.6527 99.0354 88.4171 101.695 86.0145 102.573C83.6119 103.452 80.9522 102.216 80.0738 99.8136C79.1955 97.4111 80.4311 94.7513 82.8337 93.873C85.2363 92.9946 87.896 94.2303 88.7744 96.6329Z" fill="#F5F937"/>
<path d="M108.708 109.718C109.587 112.121 108.351 114.781 105.948 115.659C103.546 116.537 100.886 115.302 100.008 112.899C99.1293 110.497 100.365 107.837 102.768 106.958C105.17 106.08 107.83 107.316 108.708 109.718Z" fill="#F5F937"/>
<path d="M101.418 76.4166C102.297 78.8191 101.061 81.4788 98.6586 82.3572C96.256 83.2355 93.5963 81.9999 92.7179 79.5973C91.8396 77.1947 93.0752 74.535 95.4778 73.6567C97.8804 72.7783 100.54 74.014 101.418 76.4166Z" fill="#F5F937"/>
<path d="M105.063 93.0672C105.942 95.4698 104.706 98.1295 102.303 99.0078C99.9008 99.8862 97.2411 98.6505 96.3628 96.248C95.4844 93.8454 96.7201 91.1857 99.1227 90.3073C101.525 89.429 104.185 90.6646 105.063 93.0672Z" fill="#F5F937"/>
</svg>
